<svg id="list" xmlns="http://www.w3.org/2000/svg" width="20" height="20" viewBox="0 0 20 20">
  <rect id="back" width="20" height="20" fill="none"/>
  <path id="icon" d="M3.75,2.865a.615.615,0,0,1,.615-.615H7.647a.615.615,0,0,1,.615.615V6.147a.615.615,0,0,1-.615.615H4.365a.615.615,0,0,1-.615-.615Zm1.231.615V5.532H7.032V3.481ZM3.75,8.609a.615.615,0,0,1,.615-.615H7.647a.615.615,0,0,1,.615.615v3.282a.615.615,0,0,1-.615.615H4.365a.615.615,0,0,1-.615-.615Zm1.231.615v2.051H7.032V9.224ZM3.75,14.353a.615.615,0,0,1,.615-.615H7.647a.615.615,0,0,1,.615.615v3.282a.615.615,0,0,1-.615.615H4.365a.615.615,0,0,1-.615-.615Zm1.231.615v2.051H7.032V14.968Zm4.1-11.692A.615.615,0,0,1,9.7,2.66h3.282a.615.615,0,0,1,0,1.231H9.7A.615.615,0,0,1,9.083,3.276Zm0,5.744A.615.615,0,0,1,9.7,8.4h3.282a.615.615,0,0,1,0,1.231H9.7A.615.615,0,0,1,9.083,9.019Zm0,5.744a.615.615,0,0,1,.615-.615h3.282a.615.615,0,0,1,0,1.231H9.7A.615.615,0,0,1,9.083,14.763Zm0-9.026A.615.615,0,0,1,9.7,5.122h7.385a.615.615,0,0,1,0,1.231H9.7A.615.615,0,0,1,9.083,5.737Zm0,5.744a.615.615,0,0,1,.615-.615h7.385a.615.615,0,0,1,0,1.231H9.7A.615.615,0,0,1,9.083,11.481Zm0,5.744a.615.615,0,0,1,.615-.615h7.385a.615.615,0,0,1,0,1.231H9.7A.615.615,0,0,1,9.083,17.224Z" transform="translate(-0.75 -0.25)" fill="#1b1c1b" fill-rule="evenodd"/>
</svg>
