<svg xmlns="http://www.w3.org/2000/svg" width="24" height="24"><path fill="none" d="M0 0h24v24H0z"/><g fill="none" stroke="#bcbcbc" stroke-linecap="round" stroke-linejoin="round" stroke-width="1.2"><path data-name="Linha 9" d="M12.001 5.718V4"/><path data-name="Caminho 16" d="M11.308 5.718h1.386a.277.277 0 0 1 .277.277v2.818h-1.94V5.998a.277.277 0 0 1 .277-.28Z"/><path data-name="Caminho 17" d="M5.672 12.931v3.15H18.33v-3.15"/><path data-name="Caminho 18" d="M6.91 8.813h10.184a1.7 1.7 0 0 1 1.7 1.7v1.261a1.7 1.7 0 0 1-1.7 1.7h0a1.7 1.7 0 0 1-1.7-1.7h0a1.7 1.7 0 0 1-1.7 1.7h0a1.7 1.7 0 0 1-1.7-1.7h0a1.7 1.7 0 0 1-1.7 1.7h0a1.7 1.7 0 0 1-1.7-1.7h0a1.7 1.7 0 0 1-1.7 1.7h0a1.7 1.7 0 0 1-1.7-1.7v-1.265a1.7 1.7 0 0 1 1.7-1.7Zm10.608 10.472H6.483a1.663 1.663 0 0 1-1.48-.906l-.973-1.9a.277.277 0 0 1 .247-.4h15.447a.277.277 0 0 1 .247.4l-.97 1.9a1.663 1.663 0 0 1-1.483.906Z"/></g></svg>