<svg xmlns="http://www.w3.org/2000/svg" width="20" height="20"><path fill="none" d="M0 0h20v20H0z"/><path data-name="calendar" d="M10.091 16.364a.909.909 0 1 0-.909-.909.909.909 0 0 0 .909.909Zm4.545 0a.909.909 0 1 0-.909-.909.909.909 0 0 0 .909.909Zm0-3.636a.909.909 0 1 0-.909-.909.909.909 0 0 0 .909.908Zm-4.545 0a.909.909 0 1 0-.909-.909.909.909 0 0 0 .909.908Zm6.364-10.91h-.909V.909a.909.909 0 0 0-1.818 0v.909H6.455V.909a.909.909 0 1 0-1.818 0v.909h-.91A2.727 2.727 0 0 0 1 4.545v12.728A2.727 2.727 0 0 0 3.727 20h12.728a2.727 2.727 0 0 0 2.727-2.727V4.545a2.727 2.727 0 0 0-2.727-2.727Zm.909 15.455a.909.909 0 0 1-.909.909H3.727a.909.909 0 0 1-.909-.909V9.091h14.546Zm0-10H2.818V4.545a.909.909 0 0 1 .909-.909h.909v.909a.909.909 0 0 0 1.818 0v-.909h7.273v.909a.909.909 0 0 0 1.818 0v-.909h.909a.909.909 0 0 1 .909.909ZM5.545 12.727a.909.909 0 1 0-.909-.909.909.909 0 0 0 .909.909Zm0 3.636a.909.909 0 1 0-.909-.909.909.909 0 0 0 .909.91Z" fill="#fcd447"/></svg>