<svg id="phone" xmlns="http://www.w3.org/2000/svg" width="24" height="24" viewBox="0 0 24 24">
    <rect id="back" width="24" height="24" fill="none"/>
    <path id="phone-2" data-name="phone" d="M18.08,13.979v2.409a1.606,1.606,0,0,1-1.75,1.606A15.889,15.889,0,0,1,9.4,15.529a15.656,15.656,0,0,1-4.817-4.817A15.889,15.889,0,0,1,2.118,3.75,1.606,1.606,0,0,1,3.716,2H6.125A1.606,1.606,0,0,1,7.731,3.381a10.309,10.309,0,0,0,.562,2.256,1.606,1.606,0,0,1-.361,1.694l-1.02,1.02a12.846,12.846,0,0,0,4.817,4.817l1.02-1.02a1.606,1.606,0,0,1,1.694-.361,10.309,10.309,0,0,0,2.256.562,1.606,1.606,0,0,1,1.381,1.63Z" transform="translate(2.388 2.5)" fill="none" stroke="#bcbcbc" stroke-linecap="round" stroke-linejoin="round" stroke-width="1.5"/>
  </svg>
  