<svg xmlns="http://www.w3.org/2000/svg" width="20" height="20"><path data-name="Caminho 28" d="M5.495 14.504a.625.625 0 0 0 .884 0L10 10.883l3.621 3.621a.625.625 0 0 0 .884-.884l-3.621-3.621 3.621-3.621a.625.625 0 1 0-.884-.884L10 9.112 6.379 5.491a.625.625 0 1 0-.884.884L9.112 10l-3.621 3.621a.625.625 0 0 0 .004.883Z" fill="#c89550"/><path data-name="Caminho 29" d="M10 20a10 10 0 0 0 7.071-17.071A10 10 0 1 0 2.929 17.071 9.932 9.932 0 0 0 10 20ZM3.813 3.813a8.75 8.75 0 1 1 12.374 12.374A8.75 8.75 0 1 1 3.813 3.813Z" fill="#c89550"/></svg>