<svg id="vazio" xmlns="http://www.w3.org/2000/svg" width="100" height="100" viewBox="0 0 100 100">
    <path id="Caminho_25" data-name="Caminho 25" d="M86.406,29.1A16.394,16.394,0,0,0,71.6,18.014a20.978,20.978,0,0,0-41.2,0A16.411,16.411,0,0,0,15.572,29.1a14.879,14.879,0,0,0,.307,29.755H32.418A22.845,22.845,0,0,0,40.826,65.7v6.29a3.816,3.816,0,0,0,3.121,3.738l-1.2,16.382a8.278,8.278,0,1,0,16.512,0l-1.2-16.388a3.811,3.811,0,0,0,3.108-3.738v-6.3a23.539,23.539,0,0,0,8.391-6.831H86.119A14.879,14.879,0,0,0,86.406,29.1ZM46.738,92.4,47.952,75.8h6.109l1.212,16.6C55.691,98.4,46.288,98.419,46.738,92.4ZM57.174,71.8H44.826V67.2A23.543,23.543,0,0,0,51,68.038h0a23.312,23.312,0,0,0,6.168-.851V71.8Zm-6.168-7.758A19.426,19.426,0,1,1,70.434,44.611,19.421,19.421,0,0,1,51.006,64.038Zm35.113-9.185H72.043A23.371,23.371,0,0,0,51.008,21.186h0A23.4,23.4,0,0,0,29.939,54.854H15.879a10.879,10.879,0,0,1,0-21.759,9.215,9.215,0,0,1,.969.05,2.008,2.008,0,0,0,2.158-1.533A12.435,12.435,0,0,1,31.18,22a5.254,5.254,0,0,1,.676.042,2,2,0,0,0,2.254-1.778,16.976,16.976,0,0,1,33.779,0,2,2,0,0,0,2.254,1.778A5.276,5.276,0,0,1,70.818,22a12.423,12.423,0,0,1,12.154,9.615,2.01,2.01,0,0,0,2.146,1.534c.332-.033.666-.051,1-.051a10.879,10.879,0,1,1,0,21.759Z" transform="translate(-1 -0.998)" fill="#3f3f3f"/>
  </svg>
  