<svg id="map-pin" xmlns="http://www.w3.org/2000/svg" width="24" height="24" viewBox="0 0 24 24">
    <rect id="back" width="24" height="24" fill="none"/>
    <g id="icon" transform="translate(5 4)">
      <g id="Caminho_3" data-name="Caminho 3" transform="translate(-3 -1)" fill="none" stroke-linecap="round" stroke-linejoin="round">
        <path d="M16.091,7.545C16.091,12.636,9.545,17,9.545,17S3,12.636,3,7.545a6.545,6.545,0,0,1,13.091,0Z" stroke="none"/>
        <path d="M 9.545454978942871 2.5 C 6.763375282287598 2.5 4.499995231628418 4.76338005065918 4.499995231628418 7.545450210571289 C 4.499995231628418 9.665129661560059 6.03465461730957 11.74050998687744 7.322065353393555 13.10828018188477 C 8.135210037231445 13.9721736907959 8.959247589111328 14.67270851135254 9.546294212341309 15.13505172729492 C 10.12131595611572 14.68237400054932 10.92459583282471 13.99955940246582 11.72925567626953 13.15019989013672 C 13.03472518920898 11.7721996307373 14.59090518951416 9.681240081787109 14.59090518951416 7.545450210571289 C 14.59090518951416 4.76338005065918 12.32752513885498 2.5 9.545454978942871 2.5 M 9.545454978942871 1 C 13.16040515899658 1 16.09090423583984 3.930500030517578 16.09090423583984 7.545450210571289 C 16.09090423583984 12.63636016845703 9.545454978942871 17 9.545454978942871 17 C 9.545454978942871 17 2.999994277954102 12.63636016845703 2.999994277954102 7.545450210571289 C 2.999994277954102 3.930500030517578 5.930495262145996 1 9.545454978942871 1 Z" stroke="none" fill="#bcbcbc"/>
      </g>
      <g id="Elipse_1" data-name="Elipse 1" transform="translate(4.364 4.364)" fill="none" stroke="#bcbcbc" stroke-linecap="round" stroke-linejoin="round" stroke-width="1.5">
        <circle cx="2.182" cy="2.182" r="2.182" stroke="none"/>
        <circle cx="2.182" cy="2.182" r="1.432" fill="none"/>
      </g>
    </g>
  </svg>
  