<svg id="coins" xmlns="http://www.w3.org/2000/svg" width="24" height="24" viewBox="0 0 24 24">
    <rect id="back" width="24" height="24" fill="none"/>
    <g id="icon" transform="translate(1.9 -189.1)">
      <path id="Caminho_6" data-name="Caminho 6" d="M10.1,11.86v3.377a2.63,2.63,0,0,0,1.309,2.123,8.3,8.3,0,0,0,4.517,1.169,8.3,8.3,0,0,0,4.517-1.169,2.63,2.63,0,0,0,1.309-2.123V11.86a.76.76,0,1,0-1.52,0v3.377c0,.339-.274.615-.646.868a6.754,6.754,0,0,1-3.66.905,6.754,6.754,0,0,1-3.66-.905c-.372-.253-.646-.529-.646-.868V11.86a.76.76,0,1,0-1.52,0Z" transform="translate(-2.246 188.193)" fill="#bcbcbc" fill-rule="evenodd"/>
      <path id="Caminho_7" data-name="Caminho 7" d="M10.1,15.86v3.377a2.63,2.63,0,0,0,1.309,2.123,8.3,8.3,0,0,0,4.517,1.169,8.3,8.3,0,0,0,4.517-1.169,2.63,2.63,0,0,0,1.309-2.123V15.86a.76.76,0,1,0-1.52,0v3.377c0,.339-.274.615-.646.868a6.754,6.754,0,0,1-3.66.905,6.754,6.754,0,0,1-3.66-.905c-.372-.253-.646-.529-.646-.868V15.86a.76.76,0,1,0-1.52,0Z" transform="translate(-2.246 187.57)" fill="#bcbcbc" fill-rule="evenodd"/>
      <path id="Caminho_8" data-name="Caminho 8" d="M15.926,8.1a8.3,8.3,0,0,0-4.516,1.169A2.631,2.631,0,0,0,10.1,11.393a2.631,2.631,0,0,0,1.309,2.123,8.3,8.3,0,0,0,4.516,1.169,8.3,8.3,0,0,0,4.516-1.169,2.631,2.631,0,0,0,1.309-2.123,2.631,2.631,0,0,0-1.309-2.123A8.3,8.3,0,0,0,15.926,8.1Zm0,1.52a6.766,6.766,0,0,1,3.66.905c.372.254.646.529.646.868s-.274.614-.646.868a6.766,6.766,0,0,1-3.66.905,6.766,6.766,0,0,1-3.66-.905c-.372-.254-.646-.529-.646-.868s.274-.614.646-.868A6.766,6.766,0,0,1,15.926,9.62Z" transform="translate(-2.246 188.66)" fill="#bcbcbc" fill-rule="evenodd"/>
      <path id="Caminho_9" data-name="Caminho 9" d="M10.1,11.86v3.377a2.4,2.4,0,0,0,.867,1.776,6.364,6.364,0,0,0,3.124,1.359.76.76,0,1,0,.266-1.5,5.436,5.436,0,0,1-2.116-.788c-.359-.249-.621-.52-.621-.851V11.86a.76.76,0,1,0-1.52,0Z" transform="translate(-9 183.533)" fill="#bcbcbc" fill-rule="evenodd"/>
      <path id="Caminho_10" data-name="Caminho 10" d="M10.1,14.77v3.377a2.516,2.516,0,0,0,1.089,1.963A7.4,7.4,0,0,0,15.021,21.4a.76.76,0,0,0,.127-1.515,5.862,5.862,0,0,1-3.024-.976,1.049,1.049,0,0,1-.5-.765V14.77a.76.76,0,0,0-1.52,0Zm5.038-1.637a5.855,5.855,0,0,1-3.015-.977,1.046,1.046,0,0,1-.5-.763c0-.339.274-.614.646-.868a6.766,6.766,0,0,1,3.66-.905,6.766,6.766,0,0,1,3.66.905c.372.254.646.529.646.868a.76.76,0,0,0,1.52,0,2.631,2.631,0,0,0-1.309-2.123A8.3,8.3,0,0,0,15.926,8.1a8.3,8.3,0,0,0-4.516,1.169A2.631,2.631,0,0,0,10.1,11.393a2.513,2.513,0,0,0,1.087,1.96,7.386,7.386,0,0,0,3.823,1.293.76.76,0,1,0,.128-1.514Z" transform="translate(-9 184)" fill="#bcbcbc" fill-rule="evenodd"/>
    </g>
  </svg>
  