<svg xmlns="http://www.w3.org/2000/svg" width="106.951" height="25.5" viewBox="0 0 106.951 25.5">
	<g id="vazio" transform="translate(0.75 0.75)" opacity="0.9">
	  <path id="Caminho_34" data-name="Caminho 34" d="M32.586,187.188h71.663v24H32.586c-3.358,0-6.1-2.072-6.1-4.6v-14.8C26.485,189.26,29.228,187.188,32.586,187.188Z" transform="translate(-26.485 -187.188)" fill="none" stroke="#9fa2a5" stroke-linecap="round" stroke-linejoin="round" stroke-miterlimit="10" stroke-width="1.5"/>
	  <path id="Caminho_35" data-name="Caminho 35" d="M386.647,187.188h-20.94v24h21.277c3.529,0,6.41-2.177,6.41-4.834V192.277C393.394,189.477,390.354,187.188,386.647,187.188Z" transform="translate(-287.943 -187.188)" fill="none" stroke="#9fa2a5" stroke-linecap="round" stroke-linejoin="round" stroke-miterlimit="10" stroke-width="1.5"/>
	  <path id="Caminho_36" data-name="Caminho 36" d="M396.978,220.239a4.832,4.832,0,0,1,6.747,0,4.625,4.625,0,0,1,0,6.619,4.83,4.83,0,0,1-6.747,0A4.609,4.609,0,0,1,396.978,220.239Z" transform="translate(-310.965 -213.38)" fill="none" stroke="#9fa2a5" stroke-linecap="round" stroke-linejoin="round" stroke-miterlimit="10" stroke-width="1.5"/>
	  <line id="Linha_10" data-name="Linha 10" x2="5.497" y2="5.403" transform="translate(92.76 13.478)" fill="none" stroke="#9fa2a5" stroke-linecap="round" stroke-linejoin="round" stroke-miterlimit="10" stroke-width="1.5"/>
	  <line id="Linha_11" data-name="Linha 11" y2="10.761" transform="translate(9.997 5.667)" fill="none" stroke="#9fa2a5" stroke-linecap="round" stroke-linejoin="round" stroke-miterlimit="10" stroke-width="1.5"/>
	</g>
  </svg>
  