<svg xmlns="http://www.w3.org/2000/svg" width="38.4" height="48"><g opacity=".9" fill="#bcbcbc"><path data-name="Caminho 46" d="M28 22a1.2 1.2 0 1 1-1.2 1.2A1.209 1.209 0 0 1 28 22Zm-17.6 0a1.2 1.2 0 1 1-1.2 1.2 1.209 1.209 0 0 1 1.2-1.2Z"/><path data-name="Caminho 47" d="M37.6 48H.8a.8.8 0 0 1-.8-.8V.8A.8.8 0 0 1 .8 0H28a.8.8 0 0 1 0 1.6H1.6v44.8h35.2v-36a.8.8 0 1 1 1.6 0v36.8a.8.8 0 0 1-.8.8Z"/><path data-name="Caminho 48" d="M37.566 11.2H28a.8.8 0 0 1-.8-.8V4.8a.8.8 0 1 1 1.6 0v4.8h6.838l-8.2-8.235A.8.8 0 1 1 28.571.237l9.566 9.6a.8.8 0 0 1-.566 1.363ZM21.6 28.8a.8.8 0 0 1-.8-.8 1.6 1.6 0 1 0-3.2 0 .8.8 0 0 1-1.6 0 3.2 3.2 0 0 1 6.4 0 .8.8 0 0 1-.8.8Zm6.4-3.6a2 2 0 1 1 2-2 2 2 0 0 1-2 2Zm0-2.4a.4.4 0 1 0 .4.4.411.411 0 0 0-.4-.4Zm-17.6 2.4a2 2 0 1 1 2-2 2 2 0 0 1-2 2Zm0-2.4a.4.4 0 1 0 .4.4.411.411 0 0 0-.4-.4Z"/><path data-name="Caminho 49" d="M37.6 48H.8a.8.8 0 0 1-.8-.8V.8A.8.8 0 0 1 .8 0H28a.8.8 0 0 1 0 1.6H1.6v44.8h35.2v-36a.8.8 0 1 1 1.6 0v36.8a.8.8 0 0 1-.8.8Z"/><path data-name="Caminho 50" d="M37.566 11.2H28a.8.8 0 0 1-.8-.8V4.8a.8.8 0 1 1 1.6 0v4.8h6.838l-8.2-8.235A.8.8 0 1 1 28.571.237l9.566 9.6a.8.8 0 0 1-.566 1.363ZM21.6 28.8a.8.8 0 0 1-.8-.8 1.6 1.6 0 1 0-3.2 0 .8.8 0 0 1-1.6 0 3.2 3.2 0 0 1 6.4 0 .8.8 0 0 1-.8.8Zm6.4-3.6a2 2 0 1 1 2-2 2 2 0 0 1-2 2Zm0-2.4a.4.4 0 1 0 .4.4.411.411 0 0 0-.4-.4Zm-17.6 2.4a2 2 0 1 1 2-2 2 2 0 0 1-2 2Zm0-2.4a.4.4 0 1 0 .4.4.411.411 0 0 0-.4-.4Z"/></g></svg>